<?xml version="1.0" encoding="UTF-8"?>
<svg version="1.1" xmlns="http://www.w3.org/2000/svg" width="754" height="676">
<path d="M0 0 C248.82 0 497.64 0 754 0 C754 223.08 754 446.16 754 676 C505.18 676 256.36 676 0 676 C0 452.92 0 229.84 0 0 Z " fill="#FEFEFE" transform="translate(0,0)"/>
<path d="M0 0 C2.66653016 1.05332808 2.66653016 1.05332808 5.94140625 1.859375 C9.79301585 3.03521698 12.98571479 4.63343755 16.5 6.58984375 C17.64339844 7.22148438 18.78679687 7.853125 19.96484375 8.50390625 C21.25068359 9.22707031 21.25068359 9.22707031 22.5625 9.96484375 C22.5625 10.62484375 22.5625 11.28484375 22.5625 11.96484375 C23.14386719 12.073125 23.72523438 12.18140625 24.32421875 12.29296875 C26.84574281 13.04986602 28.3156712 14.08751264 30.375 15.71484375 C32.90734827 17.69382703 35.44608371 19.56596675 38.125 21.33984375 C41.62518476 23.80679319 44.25430206 26.81901725 46.984375 30.09765625 C48.51969891 31.98323412 48.51969891 31.98323412 50.265625 33.58203125 C51.5625 34.96484375 51.5625 34.96484375 51.5625 36.96484375 C52.5525 37.29484375 53.5425 37.62484375 54.5625 37.96484375 C64.5625 50.03302557 64.5625 50.03302557 64.5625 55.96484375 C65.2225 55.96484375 65.8825 55.96484375 66.5625 55.96484375 C66.90023438 56.84527344 67.23796875 57.72570312 67.5859375 58.6328125 C68.03195312 59.79425781 68.47796875 60.95570312 68.9375 62.15234375 C69.37835938 63.30089844 69.81921875 64.44945313 70.2734375 65.6328125 C71.35104347 68.41826067 72.45047394 71.19304645 73.5625 73.96484375 C74.26109131 74.00971924 74.95968262 74.05459473 75.67944336 74.10083008 C89.47171275 75.01034739 103.03726074 76.05547916 116.5625 78.96484375 C117.27196777 79.11179687 117.98143555 79.25875 118.71240234 79.41015625 C146.58211976 85.23460018 146.58211976 85.23460018 153.875 95.08984375 C156.56476871 100.21687228 156.54323554 105.68605332 154.90234375 111.171875 C152.66488242 116.23764243 149.20119653 119.94854847 144.5625 122.96484375 C143.9025 122.96484375 143.2425 122.96484375 142.5625 122.96484375 C142.5625 123.62484375 142.5625 124.28484375 142.5625 124.96484375 C141.5725 124.96484375 140.5825 124.96484375 139.5625 124.96484375 C139.5625 125.62484375 139.5625 126.28484375 139.5625 126.96484375 C107.84443299 143.00296295 107.84443299 143.00296295 94.5625 144.96484375 C95.66529807 147.90563861 96.90721908 150.61862132 98.375 153.40234375 C100.87109301 158.31070575 102.6059965 163.46338407 104.40234375 168.66015625 C105.26052016 171.10465875 106.17711461 173.4593546 107.1875 175.83984375 C112.71451247 190.5052689 113.04770246 207.32098401 111.875 222.71484375 C111.74061523 224.5414856 111.74061523 224.5414856 111.60351562 226.4050293 C110.71535565 237.20405188 108.9171177 247.42731697 105.234375 257.65234375 C104.20351074 260.89945776 104.20351074 260.89945776 105.828125 263.2578125 C106.81039062 264.19560547 106.81039062 264.19560547 107.8125 265.15234375 C111.44392562 268.7184037 111.44392562 268.7184037 112.609375 271.140625 C113.48113582 273.32349513 113.48113582 273.32349513 116.5625 273.96484375 C122.00487048 278.82728951 127.05378279 286.10545543 127.82421875 293.46484375 C127.60886537 297.20583962 127.06629752 299.34349347 124.6875 302.27734375 C120.14913933 304.72805851 115.46879219 306.39900582 110.5625 307.96484375 C109.89089844 308.18269531 109.21929688 308.40054687 108.52734375 308.625 C103.29639068 310.12431776 98.03141433 310.36154246 92.61328125 310.62109375 C89.51635308 310.9700434 87.31107952 311.50466088 84.5625 312.96484375 C83.14396815 314.64110324 83.14396815 314.64110324 82.25 316.58984375 C81.4146875 318.26046875 81.4146875 318.26046875 80.5625 319.96484375 C79.9025 319.96484375 79.2425 319.96484375 78.5625 319.96484375 C78.31242187 320.82078125 78.06234375 321.67671875 77.8046875 322.55859375 C76.47174333 326.21371109 74.76179512 329.17728168 72.6875 332.46484375 C71.67042969 334.0890625 71.67042969 334.0890625 70.6328125 335.74609375 C69.23402498 337.92081247 67.78957551 340.06672918 66.3046875 342.18359375 C64.29707271 344.84159947 64.29707271 344.84159947 64.5625 347.96484375 C68.88066344 351.31142041 73.66432435 353.58997071 78.5625 355.96484375 C80.16709971 356.7764882 81.771246 357.58902952 83.375 358.40234375 C98.39785443 365.8685214 113.97782775 372.16323702 130.0625 376.96484375 C130.74973145 377.17238281 131.43696289 377.37992187 132.14501953 377.59375 C135.67463358 378.60549605 138.9000079 379.50790292 142.5625 378.96484375 C144.61791672 377.54846722 144.61791672 377.54846722 146.3125 375.58984375 C146.90546875 374.96335937 147.4984375 374.336875 148.109375 373.69140625 C149.63427299 372.01611679 149.63427299 372.01611679 150.5625 369.96484375 C151.2225 369.96484375 151.8825 369.96484375 152.5625 369.96484375 C152.789375 369.40796875 153.01625 368.85109375 153.25 368.27734375 C154.91114828 365.35055869 157.17102306 363.29038933 159.5625 360.96484375 C162.38087881 358.19993501 165.19120021 355.42697916 168 352.65234375 C168.73798828 351.93111328 169.47597656 351.20988281 170.23632812 350.46679688 C177.20006281 343.8363421 177.20006281 343.8363421 182.5625 335.96484375 C182.14314873 331.46982282 179.02237916 329.29511403 175.875 326.40234375 C169.24117986 320.00249652 163.4320841 313.34468705 162.9375 303.71484375 C163.01762384 295.96953912 169.03677551 289.89240801 173.875 284.40234375 C174.41833984 283.76876953 174.96167969 283.13519531 175.52148438 282.48242188 C179.17474219 278.29433056 182.99976396 274.18019465 187.5625 270.96484375 C188.2225 270.96484375 188.8825 270.96484375 189.5625 270.96484375 C189.5625 270.30484375 189.5625 269.64484375 189.5625 268.96484375 C197.26608169 266.11821753 203.30870172 264.81927085 211.078125 267.9921875 C216.92616332 270.94185595 222.0910093 274.71500784 227.25 278.71484375 C228.18718872 279.4406665 228.18718872 279.4406665 229.14331055 280.18115234 C230.65829912 281.39170056 232.11636659 282.67282382 233.5625 283.96484375 C233.5625 284.62484375 233.5625 285.28484375 233.5625 285.96484375 C234.2225 285.96484375 234.8825 285.96484375 235.5625 285.96484375 C235.5625 286.62484375 235.5625 287.28484375 235.5625 287.96484375 C236.10003906 288.17496094 236.63757813 288.38507813 237.19140625 288.6015625 C240.46588288 290.4842517 242.8942159 293.08697739 245.5 295.77734375 C246.01240234 296.29876953 246.52480469 296.82019531 247.05273438 297.35742188 C248.02313065 298.3450806 248.99143707 299.33480102 249.95678711 300.32739258 C253.84027785 304.28764381 257.79294016 308.17619821 261.7578125 312.0546875 C263.2311424 313.50590759 264.70303855 314.95856487 266.17431641 316.41186523 C267.18403143 317.40642964 268.19641331 318.39829372 269.21142578 319.38745117 C270.69245674 320.83187507 272.1633865 322.28597064 273.6328125 323.7421875 C274.50695801 324.60062256 275.38110352 325.45905762 276.28173828 326.34350586 C279.9870696 330.6021381 282.28286239 334.85137542 282.0390625 340.625 C280.42702076 348.53986069 275.95031918 355.36240819 269.98046875 360.66015625 C268.4318705 361.92994272 268.4318705 361.92994272 267.5625 363.96484375 C266.9025 363.96484375 266.2425 363.96484375 265.5625 363.96484375 C265.30855469 364.53203125 265.05460938 365.09921875 264.79296875 365.68359375 C260.74552013 373.187435 254.50036097 378.73814588 246.5625 381.71484375 C240.55723167 382.46550229 236.82705454 381.96936225 231.5625 378.96484375 C229.80367388 377.52438082 228.09360823 376.02231231 226.4375 374.46484375 C223.57415231 371.78881787 220.74645738 369.25377164 217.5625 366.96484375 C214.51356884 368.09407751 212.91708426 369.59920955 210.9375 372.08984375 C210.15375 373.03859375 209.37 373.98734375 208.5625 374.96484375 C207.9025 374.96484375 207.2425 374.96484375 206.5625 374.96484375 C206.33054932 375.52349121 206.09859863 376.08213867 205.85961914 376.65771484 C204.2242759 379.56642811 202.19146071 381.54253534 199.80859375 383.87890625 C198.87208984 384.80445313 197.93558594 385.73 196.97070312 386.68359375 C195.98081227 387.65269477 194.99057386 388.62144088 194 389.58984375 C192.05799092 391.49549746 190.12015812 393.40520006 188.18359375 395.31640625 C187.3217749 396.16025879 186.45995605 397.00411133 185.57202148 397.87353516 C183.52045963 399.80121776 183.52045963 399.80121776 182.5625 401.96484375 C181.9025 401.96484375 181.2425 401.96484375 180.5625 401.96484375 C180.5625 402.62484375 180.5625 403.28484375 180.5625 403.96484375 C180.09457031 404.36832031 179.62664063 404.77179688 179.14453125 405.1875 C176.88396707 407.72714617 176.79596082 410.07086857 176.25 413.40234375 C173.91627524 425.02309626 168.84198717 435.33047342 159.5625 442.96484375 C152.96965804 447.08845651 145.76435758 450.08910201 138.5625 452.96484375 C133.59119663 455.09676808 129.9247735 458.78773355 126.5625 462.96484375 C126.2325 463.95484375 125.9025 464.94484375 125.5625 465.96484375 C126.21759552 465.95273361 126.87269104 465.94062347 127.54763794 465.92814636 C147.78860856 465.61065585 167.77973185 466.6804179 187.95759964 468.10374451 C194.74001406 468.57853052 201.52410741 469.02926412 208.30785561 469.48451614 C210.8543091 469.65564704 213.40068877 469.82784873 215.94706726 470.00009155 C233.36214328 471.17338924 250.78614128 472.14213358 268.21630859 473.0637207 C298.68488596 474.67992001 298.68488596 474.67992001 303.5625 477.96484375 C307.86334511 484.3876341 309.32630824 490.34736493 309.375 497.96484375 C309.39868652 498.93413818 309.42237305 499.90343262 309.44677734 500.90209961 C309.51587821 504.25660893 309.54187691 507.60969577 309.5625 510.96484375 C309.57619629 512.25148926 309.58989258 513.53813477 309.60400391 514.86376953 C309.7651708 530.40137804 309.6346189 545.93278472 309.1875 561.46484375 C309.14133545 563.28737671 309.14133545 563.28737671 309.09423828 565.14672852 C308.44524974 584.308048 308.44524974 584.308048 302.5625 590.96484375 C296.97144549 595.19390998 290.91995499 597.49473667 284.3125 599.65234375 C282.27164601 600.33969443 280.23130424 601.02856731 278.19140625 601.71875 C277.11777832 602.07984863 276.04415039 602.44094727 274.93798828 602.81298828 C269.01647816 604.83365115 263.13622912 606.96908173 257.25 609.08984375 C248.84189461 612.10685644 240.42305493 615.06525245 231.93530273 617.8503418 C226.53346859 619.62591861 221.17206637 621.50339169 215.8125 623.40234375 C208.45358781 625.99990556 201.05885186 628.46517529 193.625 630.83984375 C192.69526367 631.13818115 191.76552734 631.43651855 190.80761719 631.74389648 C189.93395508 632.02048096 189.06029297 632.29706543 188.16015625 632.58203125 C187.39195557 632.82550293 186.62375488 633.06897461 185.83227539 633.31982422 C175.43928459 636.27328036 165.18726453 634.74036196 154.625 633.40234375 C153.19011375 633.22412526 151.75521753 633.04598707 150.3203125 632.86791992 C129.6374123 630.27746134 108.99608767 627.35961409 88.35046387 624.49072266 C81.51783455 623.54215616 74.68466949 622.59746198 67.8515625 621.65234375 C52.16843283 619.48286772 52.16843283 619.48286772 44.61698532 618.43613338 C42.64524353 618.1628293 40.67348241 617.8896647 38.70172119 617.61650085 C36.13043757 617.25984761 33.55926881 616.90236522 30.98822021 616.54402161 C25.18950069 615.73706885 19.3901876 614.93756943 13.58559608 614.17403507 C11.61081797 613.91399719 9.63644572 613.65088321 7.66207886 613.38774109 C5.2234701 613.06327244 2.78416192 612.74399494 0.34402466 612.43122864 C-23.01556494 609.30264966 -23.01556494 609.30264966 -27.765625 603.28125 C-30.53035096 598.02124171 -31.56208304 594.33135664 -31.56689453 588.43139648 C-31.57004669 587.31760117 -31.57319885 586.20380585 -31.57644653 585.05625916 C-31.57341019 583.24563744 -31.57341019 583.24563744 -31.5703125 581.3984375 C-31.57174759 579.50533592 -31.57174759 579.50533592 -31.57321167 577.57398987 C-31.57389334 574.88645042 -31.57254387 572.1990012 -31.56787109 569.51147461 C-31.56121561 565.49786243 -31.5677624 561.48431617 -31.57421875 557.47070312 C-31.57957433 544.64477415 -31.47851039 531.82123256 -31.1171875 519 C-31.09520294 517.90070663 -31.07321838 516.80141327 -31.05056763 515.66880798 C-30.7997211 508.26347834 -29.90168132 502.35309306 -25.4375 496.21484375 C-16.0593346 489.1812197 -2.25290743 487.4502592 8.9375 484.58984375 C12.72615915 483.61413605 16.51372279 482.63424469 20.30078125 481.65234375 C21.21389572 481.41585114 22.12701019 481.17935852 23.0677948 480.93569946 C29.45757545 479.27296118 35.80116143 477.48854687 42.125 475.58984375 C52.59995618 472.47126929 63.29879521 470.45045519 74.03320312 468.44213867 C75.77472889 468.11350133 77.51319508 467.76836273 79.2487793 467.40966797 C81.52362226 466.97231819 83.56358119 466.86316716 85.875 466.90234375 C87.091875 466.92296875 88.30875 466.94359375 89.5625 466.96484375 C88.99982422 466.27261719 88.99982422 466.27261719 88.42578125 465.56640625 C84.42733012 460.47014361 80.56846133 455.18535009 78.5625 448.96484375 C79.1875 445.02734375 79.1875 445.02734375 80.5625 441.96484375 C80.8925 440.97484375 81.2225 439.98484375 81.5625 438.96484375 C79.72751953 438.80048828 79.72751953 438.80048828 77.85546875 438.6328125 C60.25453769 436.99908234 42.94837988 434.10365177 25.5625 430.96484375 C25.23378906 431.51011719 24.90507812 432.05539062 24.56640625 432.6171875 C11.87723856 452.73416067 -9.89521033 463.10306851 -32.4609375 468.44921875 C-35.4375 468.96484375 -35.4375 468.96484375 -38.9765625 469.23046875 C-48.64541155 469.99116495 -53.99865719 472.77370235 -61.609375 478.296875 C-73.35052803 486.74529497 -93.96528401 497.96484375 -108.4375 497.96484375 C-108.12296875 499.00640625 -107.8084375 500.04796875 -107.484375 501.12109375 C-104.89298861 509.77363723 -102.48535202 518.44211367 -100.3515625 527.21875 C-99.26725253 531.66256736 -98.11477728 536.0875537 -96.953125 540.51171875 C-96.4375 542.96484375 -96.4375 542.96484375 -96.4375 546.96484375 C-95.43332031 546.88105469 -94.42914063 546.79726563 -93.39453125 546.7109375 C-79.01822665 545.60071624 -61.27682298 544.30644869 -49.4375 553.96484375 C-47.4375 555.96484375 -47.4375 555.96484375 -46.9375 559.33984375 C-47.4375 562.96484375 -47.4375 562.96484375 -49.9140625 565.20703125 C-54.4043212 567.44718249 -57.43302249 567.2358727 -62.3125 566.71484375 C-63.09625 566.64910156 -63.88 566.58335937 -64.6875 566.515625 C-66.60596209 566.35185385 -68.5220862 566.16107768 -70.4375 565.96484375 C-69.76203125 566.32835937 -69.0865625 566.691875 -68.390625 567.06640625 C-58.78916032 572.47763635 -58.78916032 572.47763635 -56.4375 577.96484375 C-56.4375 581.77116585 -56.59131216 583.95592748 -59.0625 586.90234375 C-62.95522995 588.6438282 -66.58276849 588.58411594 -70.63916016 587.22973633 C-73.10633282 586.18386404 -75.52180684 585.06212784 -77.9375 583.90234375 C-78.81172607 583.49765869 -79.68595215 583.09297363 -80.58666992 582.67602539 C-84.69274172 580.76895234 -88.77027806 578.80811088 -92.83203125 576.80859375 C-93.49847656 576.48511963 -94.16492188 576.16164551 -94.8515625 575.82836914 C-96.63313608 574.95934798 -98.40485232 574.07020022 -100.17578125 573.1796875 C-105.41040272 571.23002609 -109.90381137 571.43888604 -115.0625 573.46484375 C-121.11868243 575.61016939 -121.11868243 575.61016939 -124.4375 574.96484375 C-127.67584281 573.05127754 -129.12831508 571.64505057 -130.6875 568.21484375 C-130.288592 563.02903978 -127.2622109 560.28504733 -123.4375 556.96484375 C-120.53636734 555.06283735 -117.57358255 553.44399379 -114.4375 551.96484375 C-116.73235887 541.91881819 -119.51854524 532.02448845 -122.45144653 522.14898682 C-122.8589621 520.77573081 -123.26429602 519.40182551 -123.66744995 518.02728271 C-124.24286446 516.06947675 -124.82710114 514.11452718 -125.4140625 512.16015625 C-125.92573975 510.4433667 -125.92573975 510.4433667 -126.44775391 508.69189453 C-127.2564269 505.86361972 -127.2564269 505.86361972 -129.4375 503.96484375 C-131.5782326 503.96958711 -131.5782326 503.96958711 -134.0546875 504.42578125 C-135.03719482 504.56790039 -136.01970215 504.71001953 -137.03198242 504.85644531 C-138.65583862 505.09572754 -138.65583862 505.09572754 -140.3125 505.33984375 C-151.79279192 506.86320125 -163.06061847 507.25857374 -174.625 507.21484375 C-175.80289093 507.21300079 -175.80289093 507.21300079 -177.00457764 507.21112061 C-184.22678435 507.19090198 -191.2953438 507.11645081 -198.4375 505.96484375 C-198.05061694 510.10542287 -197.65976518 514.24560493 -197.265625 518.38549805 C-197.13276439 519.78644292 -197.00088818 521.18748158 -196.87011719 522.58862305 C-195.57388054 536.46334066 -193.8413209 550.23237757 -191.4375 563.96484375 C-190.85073486 564.01906494 -190.26396973 564.07328613 -189.65942383 564.12915039 C-178.38314098 565.2314916 -167.58566128 566.7933779 -156.8125 570.40234375 C-155.94343018 570.69052979 -155.07436035 570.97871582 -154.17895508 571.27563477 C-148.93302654 573.13083256 -144.49138758 575.12852281 -141.125 579.77734375 C-140.11151356 583.00207332 -140.07179499 585.61254784 -140.4375 588.96484375 C-143.09925288 591.51988939 -145.08277687 592.414174 -148.75 592.46484375 C-154.97712895 592.31591391 -160.52556799 590.17141459 -166.3125 588.05859375 C-169.20030643 586.85472694 -169.20030643 586.85472694 -171.4375 586.96484375 C-171.4375 587.62484375 -171.4375 588.28484375 -171.4375 588.96484375 C-170.880625 589.17109375 -170.32375 589.37734375 -169.75 589.58984375 C-166.53404212 591.50203492 -164.18794253 593.6723447 -162.4375 596.96484375 C-161.86913239 600.04876432 -161.73686687 602.89957379 -162.4375 605.96484375 C-164.50223974 608.65267063 -165.3825742 608.95162087 -168.8125 609.77734375 C-173.93779996 610.04244547 -176.33399687 608.90806151 -180.234375 605.57421875 C-181.22364495 604.62617531 -182.20784387 603.67281832 -183.1875 602.71484375 C-187.39691458 598.71872871 -191.5979002 595.26491433 -196.53515625 592.17578125 C-198.4375 590.96484375 -198.4375 590.96484375 -201.3125 588.65234375 C-204.78930984 585.8913477 -207.49474828 585.87647987 -211.76953125 586.04296875 C-212.81560547 586.06875 -213.86167969 586.09453125 -214.93945312 586.12109375 C-217.13527503 586.18327632 -219.33071025 586.26124276 -221.52539062 586.35546875 C-230.50327079 586.53182981 -230.50327079 586.53182981 -234.125 583.6640625 C-237.04438332 580.2564715 -237.67343841 578.44767359 -237.4375 573.96484375 C-235.31083857 569.44568822 -233.64765121 568.40109246 -228.9375 566.703125 C-223.49325653 565.11656691 -218.15919616 563.67875894 -212.4375 563.96484375 C-213.09650959 557.96397995 -213.7651468 551.96422642 -214.4375 545.96484375 C-214.55528809 544.91055176 -214.67307617 543.85625977 -214.79443359 542.77001953 C-216.61536447 526.0309326 -216.61536447 526.0309326 -219.10546875 509.3828125 C-219.44910389 506.8803401 -219.49637835 504.48755464 -219.4375 501.96484375 C-220.47648438 501.7225 -221.51546875 501.48015625 -222.5859375 501.23046875 C-229.50715418 499.58168853 -236.22305755 497.90811491 -242.7734375 495.08203125 C-245.49028886 493.94270649 -248.2436913 492.94465214 -251.01708984 491.95263672 C-263.82449625 487.33292054 -275.97644514 481.32531162 -287.4375 473.96484375 C-287.98728516 473.61728027 -288.53707031 473.2697168 -289.10351562 472.91162109 C-298.52550749 466.93305859 -307.10382433 460.37562563 -315.4375 452.96484375 C-316.79875 451.76988281 -316.79875 451.76988281 -318.1875 450.55078125 C-325.85928325 443.74441257 -332.92134835 436.82209989 -339.23828125 428.73046875 C-341.73103677 425.59570693 -344.32820195 422.5648939 -346.9375 419.52734375 C-353.02683529 412.39808402 -358.63512197 405.0292144 -363.4375 396.96484375 C-364.32560174 395.64709988 -365.22155729 394.33461759 -366.125 393.02734375 C-371.73215652 384.63758338 -376.99873903 375.93190533 -380.51171875 366.4453125 C-381.56008186 363.63640712 -382.74697255 360.90386489 -383.9375 358.15234375 C-388.47022126 347.32417629 -391.615307 336.890565 -391.625 325.15234375 C-391.63724609 324.38341797 -391.64949219 323.61449219 -391.66210938 322.82226562 C-391.67785164 316.60407086 -391.50745239 310.52686733 -387.44921875 305.50390625 C-386.29873047 304.55644531 -386.29873047 304.55644531 -385.125 303.58984375 C-384.36574219 302.94273437 -383.60648437 302.295625 -382.82421875 301.62890625 C-377.84143752 298.1548231 -373.59517775 297.66907981 -367.625 297.77734375 C-366.88378906 297.78306396 -366.14257812 297.78878418 -365.37890625 297.79467773 C-360.21600629 297.86085474 -355.08602039 298.15433369 -349.9375 298.52734375 C-330.17534031 299.84611397 -316.88288119 291.28867351 -301.16699219 280.18554688 C-299.40940336 278.94501269 -297.64625613 277.71266173 -295.8828125 276.48046875 C-289.3922169 271.92109135 -283.1186637 267.20670446 -277.02734375 262.1171875 C-274.47227735 259.99374619 -271.86840884 257.94685476 -269.25 255.90234375 C-265.28096236 252.74601381 -261.71364098 249.35804411 -258.19140625 245.71484375 C-256.4375 243.96484375 -256.4375 243.96484375 -253.5625 241.71484375 C-251.32088485 239.86880774 -250.6474623 238.54609665 -249.4375 235.96484375 C-247.4375 233.71484375 -247.4375 233.71484375 -245.4375 231.96484375 C-244.7775 231.96484375 -244.1175 231.96484375 -243.4375 231.96484375 C-243.04111328 231.11019531 -243.04111328 231.11019531 -242.63671875 230.23828125 C-241.36374546 227.82502244 -239.88057499 225.77638138 -238.25 223.58984375 C-230.61263833 212.76498815 -225.68204517 200.2235842 -220.38916016 188.13574219 C-217.48075465 181.50117529 -214.51277429 174.89882719 -211.4375 168.33984375 C-211.1075 167.62828125 -210.7775 166.91671875 -210.4375 166.18359375 C-208.30525422 161.6359133 -205.9804563 157.29674025 -203.4375 152.96484375 C-203.09783203 152.37413086 -202.75816406 151.78341797 -202.40820312 151.17480469 C-196.24717728 140.464716 -189.67581051 130.32331517 -180.4375 121.96484375 C-179.7775 121.96484375 -179.1175 121.96484375 -178.4375 121.96484375 C-178.30174561 121.18995605 -178.16599121 120.41506836 -178.02612305 119.61669922 C-176.72025301 112.18158475 -175.39280966 104.75067976 -174.04394531 97.32324219 C-173.56793769 94.68718709 -173.10532722 92.04954394 -172.6484375 89.41015625 C-171.15478915 81.47402467 -168.37841233 74.99430823 -164.4375 67.96484375 C-164.02371094 67.17464844 -163.60992187 66.38445312 -163.18359375 65.5703125 C-145.32618077 31.91822401 -113.17230895 9.42467924 -77.4375 -2.03515625 C-52.43914143 -9.07968347 -24.3933897 -9.7339007 0 0 Z " fill="#030303" transform="translate(406.4375,27.03515625)"/>
<path d="M0 0 C1.34384766 0.26876953 1.34384766 0.26876953 2.71484375 0.54296875 C4.12443359 0.83494141 4.12443359 0.83494141 5.5625 1.1328125 C17.37315346 3.56195399 28.622274 4.45307149 40.6875 4.4453125 C41.99831543 4.44450684 43.30913086 4.44370117 44.65966797 4.44287109 C59.80550856 4.37532036 74.87009815 3.41061745 89.78100586 0.6809082 C99.86358546 -0.85276251 107.93648306 0.86901868 117.375 4.4453125 C119.67177116 5.27632872 121.96864549 6.10705984 124.265625 6.9375 C125.90047852 7.54029785 125.90047852 7.54029785 127.56835938 8.15527344 C159.46114689 19.89922553 192.60009994 24.58804357 226.47265625 21.18359375 C229.5625 21.2578125 229.5625 21.2578125 231.22265625 22.28515625 C250.42481813 50.55656077 253.25613957 82.23106614 248.06494141 115.19335938 C247.52108414 117.42798381 246.66250987 119.24500433 245.5625 121.2578125 C244.82 120.7215625 244.0775 120.1853125 243.3125 119.6328125 C235.33767276 114.40403426 227.38794497 109.35287929 217.5625 111.2578125 C205.41303848 115.01394373 195.62275757 126.25429982 189.3125 136.8203125 C188.735 137.9546875 188.1575 139.0890625 187.5625 140.2578125 C187.20285156 140.90878906 186.84320313 141.55976563 186.47265625 142.23046875 C181.22497403 152.5204079 181.93219219 162.76549178 185.203125 173.59765625 C188.13237589 181.48474845 191.63186518 189.39885592 199.36328125 193.5 C203.34758256 194.87292088 207.37195752 195.16335355 211.5625 195.2578125 C208.69191822 202.96660489 203.64415945 209.31156134 198.56640625 215.70703125 C197.00607462 217.69318437 195.4781588 219.69323968 193.96484375 221.71484375 C193.51592773 222.31071289 193.06701172 222.90658203 192.60449219 223.52050781 C191.71104829 224.70768669 190.82225859 225.89838447 189.93847656 227.09277344 C188.8600849 228.51788204 187.71632064 229.89305573 186.5625 231.2578125 C185.9025 231.2578125 185.2425 231.2578125 184.5625 231.2578125 C184.3046875 231.83015625 184.046875 232.4025 183.78125 232.9921875 C182.44884058 235.46910245 180.91193882 237.3919291 179.0625 239.5078125 C178.4540625 240.21421875 177.845625 240.920625 177.21875 241.6484375 C175.5625 243.2578125 175.5625 243.2578125 173.5625 243.2578125 C173.335625 243.8146875 173.10875 244.3715625 172.875 244.9453125 C171.18699964 247.91940838 169.09573483 249.97790115 166.5625 252.2578125 C165.9025 252.2578125 165.2425 252.2578125 164.5625 252.2578125 C164.2325 253.2478125 163.9025 254.2378125 163.5625 255.2578125 C161.57649663 256.6119057 159.57432457 257.94238874 157.5625 259.2578125 C156.2940625 260.5571875 156.2940625 260.5571875 155 261.8828125 C152.41968935 264.39696134 151.09918827 265.59982398 147.5625 266.2578125 C141.3291918 264.61746824 136.13221825 261.3752405 130.6328125 258.07421875 C127.83479599 256.41890364 125.00463053 254.88979116 122.125 253.3828125 C115.58370078 249.84392256 109.59460219 245.58438763 103.5625 241.2578125 C102.62277344 240.58492187 101.68304688 239.91203125 100.71484375 239.21875 C97.98558893 237.24740335 95.2731085 235.25470336 92.5625 233.2578125 C91.44543029 232.44775421 90.32823808 231.63786483 89.2109375 230.828125 C88.09864767 230.01344481 86.986662 229.19834918 85.875 228.3828125 C84.86050781 227.64289063 83.84601563 226.90296875 82.80078125 226.140625 C81.69283203 225.20863281 81.69283203 225.20863281 80.5625 224.2578125 C80.5625 223.5978125 80.5625 222.9378125 80.5625 222.2578125 C79.98242188 221.99613281 79.40234375 221.73445312 78.8046875 221.46484375 C76.43151245 220.1872983 74.6824157 218.75195303 72.6875 216.9453125 C70.28456527 214.79203332 67.87740008 212.66964977 65.375 210.6328125 C62.60518764 208.29385984 60.09514896 205.85076262 57.5625 203.2578125 C56.61503906 202.32582031 56.61503906 202.32582031 55.6484375 201.375 C52.61615371 198.38814369 49.74705252 195.4944183 47.125 192.1328125 C43.3602755 187.90897526 38.64392834 183.43958215 32.78125 183.09375 C32.0490625 183.14789063 31.316875 183.20203125 30.5625 183.2578125 C29.30018249 191.39274759 32.46359001 196.4430055 36.98828125 202.890625 C39.81233696 206.69932132 42.99339001 210.01487849 46.453125 213.25390625 C48.44046971 215.14188372 50.18223945 217.09317903 51.9375 219.1953125 C60.05846296 228.6261082 70.21177439 237.35732876 80.5625 244.2578125 C80.5625 244.9178125 80.5625 245.5778125 80.5625 246.2578125 C81.43032104 246.66966797 81.43032104 246.66966797 82.31567383 247.08984375 C84.52398665 248.23779209 86.47941512 249.51138074 88.51171875 250.9453125 C89.2692041 251.47455322 90.02668945 252.00379395 90.80712891 252.54907227 C91.61327637 253.11295654 92.41942383 253.67684082 93.25 254.2578125 C99.61099097 258.65540616 106.02472023 262.89277916 112.6875 266.8203125 C113.67882935 267.4090918 113.67882935 267.4090918 114.69018555 268.00976562 C118.79871766 270.39319961 122.98738493 272.37222871 127.34375 274.25952148 C130.82871353 275.82752499 134.15054331 277.67245482 137.5 279.5078125 C146.30588542 284.26125557 155.37151208 288.31267499 164.5625 292.2578125 C161.6839411 301.63883036 153.41787793 307.74269079 145.1484375 312.70703125 C122.94220565 324.17181219 100.14997978 326.90069365 75.5625 326.2578125 C74.45777344 326.23976563 73.35304688 326.22171875 72.21484375 326.203125 C37.38458324 324.64287618 6.27338957 308.48310999 -20.4375 287.2578125 C-21.14003906 286.7009375 -21.84257812 286.1440625 -22.56640625 285.5703125 C-26.41153692 282.40474631 -29.6415904 278.8835031 -32.859375 275.0859375 C-34.51985213 273.10935279 -34.51985213 273.10935279 -36.875 270.8828125 C-38.4375 269.2578125 -38.4375 269.2578125 -38.4375 267.2578125 C-39.0975 267.2578125 -39.7575 267.2578125 -40.4375 267.2578125 C-41.76953125 265.76171875 -41.76953125 265.76171875 -43.25 263.8203125 C-45.27950868 261.36902329 -46.16263715 260.36400951 -49.1875 259.1953125 C-51.64345543 259.0056347 -51.64345543 259.0056347 -53.4375 261.2578125 C-54.38063728 270.68918526 -50.04487859 278.0191965 -44.4375 285.2578125 C-39.69875444 290.79707013 -34.86804882 296.21252395 -29.25 300.8828125 C-27.8578125 302.0584375 -27.8578125 302.0584375 -26.4375 303.2578125 C-26.4375 303.9178125 -26.4375 304.5778125 -26.4375 305.2578125 C-25.4475 305.5671875 -25.4475 305.5671875 -24.4375 305.8828125 C-21.83296514 307.07655764 -20.05173328 308.21750904 -17.8125 309.9453125 C5.16092233 327.52571332 32.91719569 336.82510671 61.29785156 340.92919922 C64.06004975 341.33000978 66.81143023 341.78711452 69.5625 342.2578125 C58.32271985 355.72171875 24.61601617 359.13357245 8.3515625 360.94433594 C-28.85830408 364.02278108 -64.43568113 358.94520241 -98.4375 343.2578125 C-99.14245605 342.93554688 -99.84741211 342.61328125 -100.57373047 342.28125 C-110.25019897 337.80784384 -119.05633929 332.47360406 -127.796875 326.38574219 C-130.80979347 324.31436074 -133.90775196 322.37058106 -136.99609375 320.4140625 C-137.47175781 320.0325 -137.94742188 319.6509375 -138.4375 319.2578125 C-138.4375 318.5978125 -138.4375 317.9378125 -138.4375 317.2578125 C-139.24960938 316.92330078 -139.24960938 316.92330078 -140.078125 316.58203125 C-143.18707778 314.83710577 -145.61668521 312.5052198 -148.1875 310.0703125 C-149.25824774 309.0680835 -150.32986304 308.06678058 -151.40234375 307.06640625 C-151.9216748 306.58155762 -152.44100586 306.09670898 -152.97607422 305.59716797 C-154.84979604 303.87995482 -156.79617752 302.25781163 -158.75 300.6328125 C-162.26034562 297.59389759 -164.97232927 294.19822079 -167.7421875 290.484375 C-169.28868131 288.45326561 -170.90608928 286.58030155 -172.625 284.6953125 C-190.39772646 264.43992137 -204.59869412 240.62324259 -213.8125 215.3203125 C-214.06394775 214.63388672 -214.31539551 213.94746094 -214.57446289 213.24023438 C-216.70804197 207.10554246 -217.54506047 201.01255119 -217.6875 194.5078125 C-217.71328125 193.79109375 -217.7390625 193.074375 -217.765625 192.3359375 C-217.32481835 189.54416208 -216.44559134 188.23507788 -214.4375 186.2578125 C-212.203125 185.83203125 -212.203125 185.83203125 -209.6875 185.9453125 C-208.86765625 185.96980469 -208.0478125 185.99429688 -207.203125 186.01953125 C-205.16328617 186.19528008 -203.1301956 186.45398479 -201.10546875 186.7578125 C-174.82489812 190.3402545 -154.37817658 180.01754018 -133.4375 165.2578125 C-132.82068359 164.82645996 -132.20386719 164.39510742 -131.56835938 163.95068359 C-124.92983657 159.3019798 -118.39236839 154.56309987 -112.109375 149.4375 C-110.4375 148.2578125 -110.4375 148.2578125 -108.4375 148.2578125 C-108.4375 147.5978125 -108.4375 146.9378125 -108.4375 146.2578125 C-106.70703125 144.734375 -106.70703125 144.734375 -104.25 142.8828125 C-95.36306171 135.93989196 -86.78382502 128.40057683 -79.70703125 119.5859375 C-79.28808594 119.14765625 -78.86914062 118.709375 -78.4375 118.2578125 C-77.7775 118.2578125 -77.1175 118.2578125 -76.4375 118.2578125 C-76.18355469 117.69191406 -75.92960938 117.12601562 -75.66796875 116.54296875 C-74.28098601 113.96714366 -72.62948638 111.93666463 -70.75 109.6953125 C-59.04211909 95.20285451 -51.78545283 78.37592299 -44.46972656 61.39013672 C-41.75105956 55.10585656 -38.85261675 48.95331332 -35.75024414 42.84887695 C-34.63356872 40.64480846 -33.55592886 38.42885719 -32.5 36.1953125 C-28.1616804 27.55452718 -22.53781144 19.72585249 -16.4375 12.2578125 C-16.025 11.74976074 -15.6125 11.24170898 -15.1875 10.71826172 C-13.83874851 9.06025798 -12.48331859 7.40798504 -11.125 5.7578125 C-10.6921167 5.22873291 -10.2592334 4.69965332 -9.81323242 4.15454102 C-6.41933922 0.07183796 -5.20545799 -1.07544762 0 0 Z " fill="#FEFEFE" transform="translate(250.4375,155.7421875)"/>
<path d="M0 0 C1.175625 1.2375 1.175625 1.2375 2.375 2.5 C2.94347656 3.02464844 3.51195312 3.54929687 4.09765625 4.08984375 C14.74991029 14.10677449 23.81030786 26.87861078 26.375 41.5 C17.81633431 46.59015381 8.49274423 48.99827064 -0.99365234 51.72949219 C-5.14095757 52.94390073 -9.25767613 54.25065928 -13.375 55.5625 C-14.16334229 55.81177246 -14.95168457 56.06104492 -15.76391602 56.31787109 C-19.39253323 57.46604855 -23.01664223 58.62569126 -26.6328125 59.8125 C-44.40005815 65.59885367 -62.61321449 69.16442681 -80.9375 72.6875 C-81.83797058 72.86189606 -82.73844116 73.03629211 -83.66619873 73.2159729 C-99.57899513 76.28634583 -115.26428296 78.69375659 -131.5 79.1875 C-133.31769897 79.24393677 -133.31769897 79.24393677 -135.17211914 79.30151367 C-152.26915219 79.75332237 -167.89577314 78.07914919 -184.625 74.5 C-187.59111034 62.89162571 -182.02574625 49.18752661 -177.625 38.5 C-176.965 38.5 -176.305 38.5 -175.625 38.5 C-175.48964844 37.91089844 -175.35429687 37.32179688 -175.21484375 36.71484375 C-172.30953049 25.80548866 -162.99831669 14.8266521 -154.625 7.5 C-153.965 7.5 -153.305 7.5 -152.625 7.5 C-152.41875 6.94054687 -152.2125 6.38109375 -152 5.8046875 C-150.12600681 2.66361937 -147.51347843 0.77332901 -144.625 -1.375 C-144.03904053 -1.81626221 -143.45308105 -2.25752441 -142.84936523 -2.7121582 C-137.96722497 -6.34031725 -132.97791898 -9.60182197 -127.625 -12.5 C-126.56796875 -13.07492188 -125.5109375 -13.64984375 -124.421875 -14.2421875 C-84.05268873 -35.33191934 -33.61427539 -32.01359561 0 0 Z " fill="#FEFEFE" transform="translate(434.625,64.5)"/>
<path d="M0 0 C7.48158069 -0.13834192 14.76121771 0.23741412 22.1953125 1.05859375 C23.22703583 1.1672023 24.25875916 1.27581085 25.32174683 1.38771057 C28.59009797 1.73224847 31.85758877 2.08416817 35.125 2.4375 C53.13723979 4.39478757 53.13723979 4.39478757 71.20585632 5.67970276 C77.97342273 6.0292902 84.69739728 6.68615799 91.4375 7.375 C94.14311056 7.64451552 96.84879022 7.9130896 99.5546875 8.1796875 C100.2451265 8.24786682 100.93556549 8.31604614 101.64692688 8.3862915 C109.44684589 9.15103045 117.25445293 9.8244226 125.0625 10.5 C139.69194911 11.7691212 154.30198829 13.18955672 168.91015625 14.68457031 C173.27275237 15.12993016 177.63627428 15.56586651 182 16 C183.03675587 20.25306702 183.14492591 24.37489593 183.1328125 28.7265625 C183.13413177 29.49157074 183.13545105 30.25657898 183.1368103 31.04476929 C183.1387384 33.5715529 183.13234527 36.09822742 183.125 38.625 C183.12367065 39.9229248 183.12367065 39.9229248 183.12231445 41.24707031 C183.09741356 62.1714848 182.57960992 83.08471443 182 104 C160.63466243 101.87555657 139.42362564 98.85617616 118.18286133 95.75439453 C104.98313811 93.82929434 91.77655047 91.9491517 78.5625 90.125 C77.37567627 89.96064453 76.18885254 89.79628906 74.96606445 89.62695312 C67.82752168 88.64453041 60.68574814 87.69442683 53.5390625 86.7734375 C24.14907658 82.98093329 24.14907658 82.98093329 10.75 80.75 C9.76862061 80.58693359 8.78724121 80.42386719 7.77612305 80.25585938 C1.27324881 79.13662441 1.27324881 79.13662441 -1 78 C-1.02343859 70.48785267 -1.04107234 62.97570926 -1.05181217 55.4635334 C-1.05697346 51.97323415 -1.06394395 48.48296038 -1.07543945 44.99267578 C-1.1236726 29.96703695 -1.14171619 14.99033455 0 0 Z " fill="#FDFDFD" transform="translate(393,541)"/>
<path d="M0 0 C1.25886752 28.10807366 0.54768803 55.9142928 -1 84 C-26.03431639 92.88705252 -51.15447685 101.46983294 -76.38391113 109.7857666 C-78.81774592 110.58842581 -81.25072672 111.39363169 -83.68359375 112.19921875 C-84.42796188 112.44401474 -85.17233002 112.68881073 -85.93925476 112.94102478 C-90.73905563 114.53327151 -95.42443602 116.29464384 -100.0546875 118.3359375 C-102 119 -102 119 -106 119 C-106.0233037 109.83688944 -106.04100611 100.67378928 -106.05181217 91.5106554 C-106.05700191 87.25457007 -106.06402741 82.9985052 -106.07543945 78.74243164 C-106.08640869 74.62512197 -106.09230617 70.50783182 -106.09487724 66.39050865 C-106.09670646 64.82986837 -106.10027761 63.26922901 -106.10573006 61.70859718 C-106.12216393 56.80391539 -106.08205799 51.90407588 -106 47 C-105.99394745 45.74375824 -105.9878949 44.48751648 -105.98165894 43.19320679 C-105.70922408 34.72044598 -105.70922408 34.72044598 -102.37695312 31.33544922 C-98.92054506 29.96857876 -95.53330886 28.69184123 -91.96875 27.6328125 C-91.30379013 27.43259995 -90.63883026 27.23238739 -89.95372009 27.02610779 C-87.80532453 26.38236167 -85.65292506 25.75341345 -83.5 25.125 C-82.01291225 24.68284869 -80.52601551 24.24005447 -79.03930664 23.79663086 C-69.68289904 21.01906989 -60.29714047 18.34864883 -50.8515625 15.88916016 C-46.56745982 14.76363156 -42.46440048 13.4700466 -38.32885742 11.86352539 C-32.93281006 9.86270565 -27.4185025 8.18833613 -21.9375 6.4375 C-20.69677734 6.03853516 -19.45605469 5.63957031 -18.17773438 5.22851562 C-1.86371818 0 -1.86371818 0 0 0 Z " fill="#FDFDFD" transform="translate(698,523)"/>
<path d="M0 0 C1.97534129 0.01148154 3.9506831 0.0228722 5.92602539 0.03417969 C54.78925018 0.4166162 103.65145324 3.74009633 152.4375 6.3125 C152.4375 6.9725 152.4375 7.6325 152.4375 8.3125 C137.20099677 13.26462607 121.91914767 18.04380523 106.57421875 22.64746094 C105.18096183 23.06566276 103.78773239 23.48395613 102.39453125 23.90234375 C101.7158902 24.10610626 101.03724915 24.30986877 100.33804321 24.51980591 C96.0696056 25.80636907 91.81836582 27.13880045 87.57421875 28.50390625 C86.53797363 28.83318115 85.50172852 29.16245605 84.43408203 29.50170898 C82.55758785 30.10019477 80.68444963 30.70937485 78.81591797 31.33227539 C68.77340644 34.50894868 58.80807725 33.21935139 48.4453125 32.359375 C47.20257065 32.25924103 45.9598288 32.15910706 44.6794281 32.05593872 C41.33308253 31.78511997 37.98708959 31.5105575 34.64122391 31.23390961 C32.54940106 31.06141987 30.45745079 30.89056854 28.365448 30.72027588 C9.14937759 29.15585665 -10.05557544 27.49062424 -29.25170898 25.69677734 C-37.98614032 24.88448032 -46.72112234 24.12553114 -55.46875 23.46875 C-56.36046402 23.40172882 -57.25217804 23.33470764 -58.1709137 23.26565552 C-62.37888106 22.95161839 -66.58725767 22.64565242 -70.79663086 22.35107422 C-79.47603835 21.72875897 -87.98200585 20.81236925 -96.5625 19.3125 C-93.71321527 17.78253229 -91.00716771 16.78893788 -87.87890625 15.98046875 C-86.96125488 15.74175049 -86.04360352 15.50303223 -85.09814453 15.25708008 C-84.11700684 15.00724365 -83.13586914 14.75740723 -82.125 14.5 C-81.11034668 14.23791748 -80.09569336 13.97583496 -79.05029297 13.70581055 C-71.2772181 11.71220433 -63.47984189 9.82731806 -55.65454102 8.04956055 C-54.45269165 7.77172729 -54.45269165 7.77172729 -53.2265625 7.48828125 C-52.19716553 7.25492065 -52.19716553 7.25492065 -51.14697266 7.0168457 C-48.82251173 6.38336093 -46.59343534 5.63531671 -44.31958008 4.84326172 C-30.03785093 0.03957592 -14.91194071 -0.15713909 0 0 Z " fill="#FCFCFC" transform="translate(514.5625,508.6875)"/>
<path d="M0 0 C0.77384033 0.00563965 1.54768066 0.0112793 2.3449707 0.01708984 C16.68069429 0.30451577 30.63842799 2.75102198 44.5 6.3125 C45.4696167 6.5614502 46.4392334 6.81040039 47.43823242 7.06689453 C56.53716063 9.5310363 56.53716063 9.5310363 59.9375 12.3125 C60.75 14.5 60.75 14.5 60.9375 16.3125 C54.09409645 22.2777677 47.22537926 26.62284252 38.9375 30.3125 C38.13828125 30.66957031 37.3390625 31.02664062 36.515625 31.39453125 C29.46107264 34.36549206 22.12696298 36.55926641 14.80175781 38.75292969 C13.19578746 39.23497317 11.59359589 39.72957369 9.9921875 40.2265625 C-25.79861837 50.80354692 -65.61165652 44.6212844 -100.0625 32.3125 C-100.0625 31.3225 -100.0625 30.3325 -100.0625 29.3125 C-97.08352241 28.41603415 -94.10433958 27.52026154 -91.125 26.625 C-90.21637207 26.35171875 -89.30774414 26.0784375 -88.37158203 25.796875 C-84.11313667 24.51837508 -79.85357026 23.24584797 -75.58203125 22.01171875 C-65.98493922 19.23803155 -56.50465677 16.19303109 -47.04443359 12.98388672 C-44.38701732 12.08367795 -41.72499813 11.1975511 -39.0625 10.3125 C-35.56471806 9.14820336 -32.06866118 7.97895985 -28.57421875 6.8046875 C-26.96614583 6.265625 -25.35807292 5.7265625 -23.75 5.1875 C-22.99654297 4.93355469 -22.24308594 4.67960937 -21.46679688 4.41796875 C-19.33567105 3.70444744 -17.20022197 3.00597424 -15.0625 2.3125 C-13.89460938 1.92964844 -12.72671875 1.54679687 -11.5234375 1.15234375 C-7.63675702 0.20918765 -3.97485042 -0.03134387 0 0 Z " fill="#FDFDFD" transform="translate(482.0625,116.6875)"/>
<path d="M0 0 C4.44867302 1.32598302 8.09642769 3.10168118 12.0625 5.5 C29.25481272 15.5278783 46.94316051 22.36874831 66 28 C67.91298085 28.57348395 69.82575586 29.1476552 71.73828125 29.72265625 C73.15882719 30.14852748 74.5793892 30.57434516 76 31 C76 31.99 76 32.98 76 34 C75.34 34 74.68 34 74 34 C73.74347656 34.58652344 73.48695313 35.17304688 73.22265625 35.77734375 C71.88826104 38.20312929 70.45514672 39.67528701 68.4375 41.5625 C64.31331426 45.56670943 60.74078989 49.88320692 57.17578125 54.38671875 C52.38559442 60.14010294 48.95023233 63.446781 41.30859375 64.30078125 C22.66790672 64.37686569 4.64325199 59.95475032 -13.36010742 55.5769043 C-16.15198263 54.9132338 -16.15198263 54.9132338 -19.66796875 54.63671875 C-24.483455 53.71652618 -28.2389483 51.39708669 -32.4375 48.9375 C-33.26443359 48.46505859 -34.09136719 47.99261719 -34.94335938 47.50585938 C-36.96821685 46.34712591 -38.98657866 45.17845586 -41 44 C-40.41209077 40.87100283 -40.18702568 40.15827628 -37.63671875 38 C-36.66347656 37.34 -35.69023437 36.68 -34.6875 36 C-31.81516973 34.03653792 -29.22121053 32.22314757 -26.76953125 29.75 C-25 28 -25 28 -23 28 C-22.85884766 27.1028125 -22.85884766 27.1028125 -22.71484375 26.1875 C-21.83159175 23.48465235 -20.79662315 22.72616356 -18.5625 21 C-12.93968083 16.31938296 -8.55595164 10.68719133 -4 5 C-3.24203125 4.05382812 -2.4840625 3.10765625 -1.703125 2.1328125 C-1.14109375 1.42898438 -0.5790625 0.72515625 0 0 Z " fill="#FDFDFD" transform="translate(458,388)"/>
<path d="M0 0 C6.42321005 3.96950592 12.48182318 8.84970164 18 14 C18 14.66 18 15.32 18 16 C18.66 16 19.32 16 20 16 C20 16.66 20 17.32 20 18 C20.639375 18.268125 21.27875 18.53625 21.9375 18.8125 C24 20 24 20 25 23 C25.66 23.33 26.32 23.66 27 24 C27.66 24.33 28.32 24.66 29 25 C29.495 26.485 29.495 26.485 30 28 C30.84075073 28.41693115 30.84075073 28.41693115 31.69848633 28.84228516 C34.95498596 30.48038012 37.27618209 32.97096102 39.82421875 35.5234375 C40.37108841 36.06602203 40.91795807 36.60860657 41.48139954 37.16763306 C42.63280242 38.31330665 43.78161204 39.46159165 44.92797852 40.61230469 C46.68318482 42.37067704 48.45130776 44.11529533 50.22070312 45.859375 C51.33935187 46.97575123 52.45721759 48.09291276 53.57421875 49.2109375 C54.10335373 49.73086273 54.63248871 50.25078796 55.17765808 50.78646851 C59.96243791 55.63237941 59.96243791 55.63237941 60 59 C58.26921376 61.47126174 56.57545147 63.59231991 54.5625 65.8125 C54.00989502 66.43326416 53.45729004 67.05402832 52.88793945 67.69360352 C51.27742252 69.48090452 49.64506061 71.24450467 48 73 C47.22914063 73.82757813 46.45828125 74.65515625 45.6640625 75.5078125 C42.54781132 78.55016049 40.88992577 79.88875928 36.5 80.4375 C32.22747914 78.68271464 29.87057655 76.29737536 26.796875 72.91015625 C24.95193277 70.8047505 24.95193277 70.8047505 22 69 C22 68.34 22 67.68 22 67 C21.41863281 66.73445313 20.83726562 66.46890625 20.23828125 66.1953125 C13.87882949 62.79916549 8.992314 57.07911315 4.4453125 51.6015625 C3.07190983 49.88412185 3.07190983 49.88412185 1 49 C1 48.34 1 47.68 1 47 C0.42709229 46.75161377 -0.14581543 46.50322754 -0.73608398 46.24731445 C-3.3433138 44.81084976 -5.11502093 43.14394562 -7.22265625 41.04296875 C-8.40118164 39.86831055 -8.40118164 39.86831055 -9.60351562 38.66992188 C-10.41498047 37.85072266 -11.22644531 37.03152344 -12.0625 36.1875 C-12.87783203 35.37990234 -13.69316406 34.57230469 -14.53320312 33.74023438 C-15.31759766 32.95326172 -16.10199219 32.16628906 -16.91015625 31.35546875 C-17.97955444 30.28268677 -17.97955444 30.28268677 -19.07055664 29.18823242 C-21.09060883 26.89723814 -22.6304184 24.73087442 -24 22 C-22.3514033 13.06225077 -14.12920504 5.21649149 -7 0 C-4.22754056 -1.38622972 -2.95534342 -0.86445924 0 0 Z " fill="#FDFDFD" transform="translate(611,310)"/>
<path d="M0 0 C1.12588014 0.95729916 2.2506715 1.91587895 3.375 2.875 C4.00148438 3.40867187 4.62796875 3.94234375 5.2734375 4.4921875 C6.55836651 5.61432007 7.79371975 6.79371975 9 8 C8.19175781 8.79664063 7.38351562 9.59328125 6.55078125 10.4140625 C5.47121829 11.48423795 4.39179887 12.55455821 3.3125 13.625 C2.78205078 14.14707031 2.25160156 14.66914063 1.70507812 15.20703125 C-0.94197202 17.83784182 -3.43620036 20.48327345 -5.76953125 23.3984375 C-6.50558594 24.25695312 -7.24164062 25.11546875 -8 26 C-8.66 26 -9.32 26 -10 26 C-10.2671582 26.59458008 -10.53431641 27.18916016 -10.80957031 27.80175781 C-12.01867082 30.03447745 -13.22121708 31.42497524 -15.046875 33.171875 C-15.64209961 33.75050293 -16.23732422 34.32913086 -16.85058594 34.92529297 C-17.47739258 35.52744629 -18.10419922 36.12959961 -18.75 36.75 C-22.7078888 40.61039891 -26.51785252 44.36615427 -29.75 48.875 C-30.4925 49.90625 -31.235 50.9375 -32 52 C-32.66 52 -33.32 52 -34 52 C-34 52.66 -34 53.32 -34 54 C-35.12994521 55.1834464 -36.26938684 56.35895702 -37.44921875 57.49267578 C-40.40803157 60.36857477 -43.18542673 63.4214562 -46 66.4375 C-46.60328125 67.08009766 -47.2065625 67.72269531 -47.828125 68.38476562 C-51.35350963 72.15922634 -54.71228298 76.01769487 -58 80 C-59.6459651 81.68711423 -61.31237149 83.3545622 -63 85 C-64.299375 86.36125 -64.299375 86.36125 -65.625 87.75 C-68 90 -68 90 -71 91 C-71.33 91.66 -71.66 92.32 -72 93 C-72.33 93.66 -72.66 94.32 -73 95 C-74.485 95.495 -74.485 95.495 -76 96 C-76.67903517 97.32707704 -77.34400544 98.66138379 -78 100 C-79.83984375 101.81640625 -79.83984375 101.81640625 -81.9375 103.5625 C-84.8839095 106.03296029 -84.8839095 106.03296029 -87.6328125 108.71484375 C-89 110 -89 110 -90.9375 110 C-94.59045045 108.22887251 -96.45722992 105.38755029 -97.91203308 101.66845703 C-98 99 -98 99 -96.09712219 96.38232422 C-95.15349256 95.42434034 -94.19295688 94.48284046 -93.2199707 93.5546875 C-92.43978828 92.77560028 -92.43978828 92.77560028 -91.6438446 91.98077393 C-89.91816855 90.26438712 -88.17232234 88.57012889 -86.42578125 86.875 C-85.22186603 85.6848204 -84.01934388 84.49323013 -82.81816101 83.30029297 C-79.64812493 80.15885687 -76.46095544 77.03539572 -73.26947021 73.91577148 C-69.40586386 70.13350294 -65.56079208 66.33241666 -61.71491528 62.53213501 C-58.71970169 59.5725987 -55.72125678 56.61663924 -52.71199036 53.67138672 C-52.15682739 53.12617371 -51.60166443 52.58096069 -51.02967834 52.01922607 C-50.00046532 51.00848407 -48.96930146 49.99972257 -47.93569946 48.99346924 C-45.05090349 46.15430074 -42.49277119 43.18537485 -40 40 C-38.85567969 38.93268731 -37.67943539 37.89849105 -36.47265625 36.90234375 C-31.38428902 32.5467768 -26.67695398 27.82719687 -21.9543457 23.0847168 C-20.4400742 21.56508332 -18.9205257 20.05087483 -17.40039062 18.53710938 C-12.53972736 13.67942087 -7.78089817 8.77607324 -3.32446289 3.53881836 C-2.26865617 2.31213637 -1.14443797 1.14443797 0 0 Z " fill="#FBFBFB" transform="translate(603,374)"/>
<path d="M0 0 C13.20467886 7.29902699 25.68131426 19.14724661 35.94116211 30.07299805 C35.25366211 32.01049805 35.25366211 32.01049805 33.94116211 34.07299805 C21.19426861 37.48214587 6.16325702 35.59015645 -6.49633789 32.82299805 C-7.43590332 32.61852051 -8.37546875 32.41404297 -9.34350586 32.20336914 C-15.04814836 30.84424038 -20.03775991 29.13983328 -25.05883789 26.07299805 C-25.8527832 24.12329102 -25.8527832 24.12329102 -26.05883789 22.07299805 C-22.00550819 13.08994304 -15.60792345 5.34825922 -8.05883789 -0.92700195 C-4.55398669 -2.09528569 -3.2652258 -1.50843634 0 0 Z " fill="#FCFCFC" transform="translate(477.058837890625,284.927001953125)"/>
<path d="M0 0 C1.010625 0.226875 2.02125 0.45375 3.0625 0.6875 C7.06074859 2.4739515 8.4889113 4.41273043 11 8 C13.85237434 16.66408707 11.87896919 26.09792284 8.25 34.1875 C5.70051261 39.01162298 2.3716278 41.58984293 -2.3125 44.375 C-6.41311975 45.3286325 -9.9793144 45.33079031 -14 44 C-18.9365288 40.19301593 -21.45056822 35.21517197 -22.25 29.08203125 C-22.71133404 21.16726907 -20.56290788 11.79813147 -15.6875 5.4375 C-10.76395426 0.97195851 -6.8639387 -2.04457748 0 0 Z " fill="#030303" transform="translate(391,246)"/>
<path d="M0 0 C1.6875 1.875 1.6875 1.875 2.125 4.75 C0.78952277 14.28912306 -9.22514288 19.89769901 -16.33203125 25.39453125 C-20.29186622 28.35464457 -22.33263691 29.39373574 -27.3125 28.875 C-29.25 27.75 -29.25 27.75 -30.3125 25.875 C-30.45432888 19.91818686 -26.87904721 15.35583529 -23.3125 10.875 C-21.38996469 8.92079941 -19.5700091 7.46551778 -17.3125 5.875 C-16.6525 5.875 -15.9925 5.875 -15.3125 5.875 C-15.3125 5.215 -15.3125 4.555 -15.3125 3.875 C-10.65146395 -0.28214026 -6.05128055 -2.94386621 0 0 Z " fill="#040404" transform="translate(686.3125,427.125)"/>
<path d="M0 0 C2.31776201 2.07799353 2.91286304 3.59336084 3.5625 6.625 C2.11582502 15.30504989 -4.73326173 23.11383288 -11 29 C-14.15951384 30.8957083 -16.31705065 31.2046083 -20 31 C-21.4966418 27.05344137 -22.47747996 23.63054325 -21.265625 19.4921875 C-17.44616269 11.58044413 -10.45775244 -1.92642808 0 0 Z " fill="#040404" transform="translate(637,442)"/>
<path d="M0 0 C1.25 1.60546875 1.25 1.60546875 1.625 4.04296875 C1.15495809 7.2549218 0.52331353 8.26950484 -1.75 10.60546875 C-4.36779368 11.943779 -7.08729425 12.87102201 -9.875 13.79296875 C-10.63965576 14.05126465 -11.40431152 14.30956055 -12.19213867 14.57568359 C-17.41189559 16.28618767 -22.20818448 17.7933269 -27.75 17.60546875 C-30.3125 15.66796875 -30.3125 15.66796875 -31.75 13.60546875 C-30.69774628 8.08113673 -28.25740455 5.97733319 -23.83984375 2.92578125 C-17.30027406 -1.20575998 -7.05728877 -5.62377699 0 0 Z " fill="#060606" transform="translate(685.75,473.39453125)"/>
<path d="M0 0 C3.29714793 0.32971479 4.6226839 0.6226839 7 3 C7.38080215 6.50337981 7.40245078 8.36278626 5.5 11.375 C5.005 11.91125 4.51 12.4475 4 13 C1.3668037 12.63680051 0.15568678 12.14494976 -1.8125 10.3125 C-3.4322551 7.15824006 -2.9482995 5.35552131 -2 2 C-1.34 1.34 -0.68 0.68 0 0 Z " fill="#070707" transform="translate(669,559)"/>
<path d="M0 0 C1.1446875 0.3403125 1.1446875 0.3403125 2.3125 0.6875 C3.64609073 7.11298263 3.64609073 7.11298263 2.1875 9.625 C-0.22329338 10.99111625 -1.96044446 10.90861261 -4.6875 10.6875 C-6.08685013 7.88879973 -5.94015405 5.78251208 -5.6875 2.6875 C-3.95592109 -0.1377077 -3.32136449 -0.38620517 0 0 Z " fill="#040404" transform="translate(622.6875,582.3125)"/>
<path d="M0 0 C0.7425 0.2475 1.485 0.495 2.25 0.75 C2.875 4.125 2.875 4.125 3.25 7.75 C2.59 8.41 1.93 9.07 1.25 9.75 C-2.375 9.375 -2.375 9.375 -5.75 8.75 C-6.5 6.5 -6.5 6.5 -6.75 3.75 C-4.64876805 0.67896869 -3.78845323 -0.34440484 0 0 Z " fill="#090909" transform="translate(427.75,569.25)"/>
<path d="M0 0 C2.4375 0.6875 2.4375 0.6875 5 2 C6 4.375 6 4.375 6 7 C4.5625 9.3125 4.5625 9.3125 3 11 C-1.875 10.125 -1.875 10.125 -3 9 C-3.47058824 3.58823529 -3.47058824 3.58823529 -1.5 1.125 C-1.005 0.75375 -0.51 0.3825 0 0 Z " fill="#0A0A0A" transform="translate(514,610)"/>
<path d="M0 0 C2.475 0.99 2.475 0.99 5 2 C5.125 5.375 5.125 5.375 5 9 C3 11 3 11 0.5 11.3125 C-0.7375 11.1578125 -0.7375 11.1578125 -2 11 C-4 8 -4 8 -3.8125 5.5 C-2.95559826 2.86337925 -2.11007147 1.74310252 0 0 Z " fill="#0C0C0C" transform="translate(650,598)"/>
<path d="M0 0 C2.5 0.25 2.5 0.25 4.5 2.25 C4.125 5.875 4.125 5.875 3.5 9.25 C1.1875 9.9375 1.1875 9.9375 -1.5 10.25 C-3.3125 9.125 -3.3125 9.125 -4.5 7.25 C-4.8125 4.6875 -4.8125 4.6875 -4.5 2.25 C-2.5 0.25 -2.5 0.25 0 0 Z " fill="#030303" transform="translate(539.5,582.75)"/>
<path d="M0 0 C2.375 0.75 2.375 0.75 3.375 1.75 C3.5625 4.6875 3.5625 4.6875 3.375 7.75 C1.375 9.75 1.375 9.75 -1.125 10 C-3.625 9.75 -3.625 9.75 -5.625 7.75 C-5.99296448 4.87987704 -6.00009409 3.34225382 -4.4375 0.875 C-2.625 -0.25 -2.625 -0.25 0 0 Z " fill="#030303" transform="translate(478.625,583.25)"/>
<path d="M0 0 C2.31581759 0.78289575 4.62732941 1.57575731 6.9375 2.375 C7.59685547 2.59671875 8.25621094 2.8184375 8.93554688 3.046875 C13.88671875 4.7734375 13.88671875 4.7734375 15 7 C10.95269975 9.02365012 8.34390623 9.38635305 4 8 C1.625 5.625 1.625 5.625 0 3 C0 2.01 0 1.02 0 0 Z " fill="#E9EAEA" transform="translate(452,327)"/>
</svg>
